<svg width="24" height="25" viewBox="0 0 24 25" fill="none" xmlns="http://www.w3.org/2000/svg">
<path d="M12 23.8056C12.4199 23.7955 12.8229 23.631 13.1377 23.3413C13.4525 23.0515 13.6587 22.6551 13.72 22.2222H10.2133C10.2763 22.6669 10.4922 23.0726 10.8209 23.3638C11.1495 23.6551 11.5685 23.8121 12 23.8056Z" fill="#E7A54E"/>
<path d="M21.9 19.5347L21.6733 19.3264C21.0303 18.7296 20.4674 18.0452 20 17.2917C19.4895 16.2518 19.1835 15.1161 19.1 13.9514V10.5208C19.0973 10.1041 19.0616 9.68837 18.9933 9.27777C17.8641 9.036 16.8497 8.39515 16.122 7.46373C15.3943 6.53232 14.9979 5.36756 15 4.16666V3.72916C14.3039 3.37235 13.5561 3.13771 12.7867 3.03472V2.15972C12.7867 1.91384 12.6929 1.67803 12.526 1.50417C12.3591 1.33031 12.1327 1.23264 11.8967 1.23264C11.6606 1.23264 11.4342 1.33031 11.2673 1.50417C11.1004 1.67803 11.0067 1.91384 11.0067 2.15972V3.06944C9.2838 3.3226 7.70704 4.21649 6.56747 5.58606C5.4279 6.95564 4.80248 8.70843 4.80666 10.5208V13.9514C4.72316 15.1161 4.41718 16.2518 3.90666 17.2917C3.44725 18.0433 2.89346 18.7276 2.25999 19.3264L2.03333 19.5347V21.4931H21.9V19.5347Z" fill="#E7A54E"/>
<path d="M20 7.6389C21.841 7.6389 23.3334 6.08434 23.3334 4.16668C23.3334 2.24902 21.841 0.694458 20 0.694458C18.1591 0.694458 16.6667 2.24902 16.6667 4.16668C16.6667 6.08434 18.1591 7.6389 20 7.6389Z" fill="#CB3F28"/>
</svg>
