<svg width="23" height="20" viewBox="0 0 23 20" fill="none" xmlns="http://www.w3.org/2000/svg">
<path d="M22.0772 0C21.968 0 21.8559 0.0174979 21.7438 0.0574929L5.17435 5.84677H0.459943C0.206974 5.84677 0 6.03175 0 6.26172V13.7358C0 13.9658 0.206974 14.1507 0.459943 14.1507H3.38058C3.27422 14.4407 3.2196 14.7482 3.2196 15.0606C3.2196 16.7079 4.76615 18.0477 6.66917 18.0477C8.26172 18.0477 9.60417 17.1079 10.0009 15.838L21.7467 19.9425C21.8588 19.98 21.9709 20 22.0801 20C22.5659 20 23 19.645 23 19.1701V0.829896C22.9971 0.354956 22.5659 0 22.0772 0ZM6.66917 16.2555C5.90739 16.2555 5.28934 15.7205 5.28934 15.0606C5.28934 14.7807 5.40145 14.5132 5.60555 14.3007L8.04612 15.1531C7.98863 15.768 7.39358 16.2555 6.66917 16.2555Z" fill="#E7A54E"/>
</svg>
