<svg width="29" height="29" viewBox="0 0 29 29" fill="none" xmlns="http://www.w3.org/2000/svg">
<path fill-rule="evenodd" clip-rule="evenodd" d="M16.6605 4.59649C16.1095 2.33449 12.8905 2.33449 12.3395 4.59649C12.2573 4.9364 12.0959 5.25207 11.8686 5.51784C11.6413 5.7836 11.3544 5.99195 11.0314 6.12591C10.7084 6.25987 10.3583 6.31568 10.0096 6.28877C9.6609 6.26187 9.3235 6.15303 9.02483 5.97109C7.03543 4.75889 4.75893 7.03539 5.97113 9.02479C6.75413 10.3095 6.05958 11.9857 4.59798 12.3409C2.33453 12.8905 2.33453 16.1109 4.59798 16.659C4.93797 16.7414 5.25371 16.9029 5.51947 17.1304C5.78523 17.3579 5.99351 17.6449 6.12735 17.9681C6.26119 18.2913 6.3168 18.6416 6.28965 18.9904C6.2625 19.3391 6.15337 19.6766 5.97113 19.9752C4.75893 21.9646 7.03543 24.2411 9.02483 23.0289C9.32344 22.8467 9.66087 22.7375 10.0096 22.7104C10.3584 22.6832 10.7087 22.7388 11.0319 22.8727C11.3551 23.0065 11.6421 23.2148 11.8696 23.4806C12.0971 23.7463 12.2586 24.062 12.341 24.402C12.8905 26.6655 16.111 26.6655 16.6591 24.402C16.7417 24.0622 16.9034 23.7467 17.1309 23.4811C17.3585 23.2155 17.6454 23.0074 17.9686 22.8736C18.2917 22.7398 18.6418 22.6841 18.9905 22.7111C19.3392 22.7381 19.6765 22.847 19.9752 23.0289C21.9646 24.2411 24.2411 21.9646 23.0289 19.9752C22.847 19.6765 22.7381 19.3391 22.7112 18.9904C22.6842 18.6418 22.7398 18.2916 22.8736 17.9685C23.0074 17.6454 23.2156 17.3584 23.4812 17.1309C23.7467 16.9033 24.0623 16.7417 24.4021 16.659C26.6655 16.1095 26.6655 12.889 24.4021 12.3409C24.0621 12.2586 23.7464 12.0971 23.4806 11.8696C23.2148 11.6421 23.0065 11.3551 22.8727 11.0319C22.7389 10.7086 22.6833 10.3584 22.7104 10.0096C22.7376 9.66084 22.8467 9.32341 23.0289 9.02479C24.2411 7.03539 21.9646 4.75889 19.9752 5.97109C19.6766 6.15333 19.3392 6.26247 18.9904 6.28961C18.6416 6.31676 18.2914 6.26115 17.9682 6.12732C17.645 5.99348 17.3579 5.7852 17.1304 5.51943C16.9029 5.25367 16.7414 4.93794 16.6591 4.59794L16.6605 4.59649ZM14.5 18.85C15.6537 18.85 16.7602 18.3917 17.5759 17.5759C18.3917 16.7601 18.85 15.6537 18.85 14.5C18.85 13.3463 18.3917 12.2399 17.5759 11.4241C16.7602 10.6083 15.6537 10.15 14.5 10.15C13.3463 10.15 12.2399 10.6083 11.4241 11.4241C10.6083 12.2399 10.15 13.3463 10.15 14.5C10.15 15.6537 10.6083 16.7601 11.4241 17.5759C12.2399 18.3917 13.3463 18.85 14.5 18.85Z" fill="#E7A54E"/>
</svg>
